<?xml version="1.0" encoding="UTF-8" standalone="no"?>
<!DOCTYPE svg PUBLIC "-//W3C//DTD SVG 1.1//EN" "http://www.w3.org/Graphics/SVG/1.1/DTD/svg11.dtd">
<!-- Generated by graphviz version 2.40.1 (20161225.0304)
 -->
<!-- Title: sub_00401f20 Pages: 1 -->
<svg width="385pt" height="764pt" viewBox="0.00 0.00 384.71 764.00" xmlns="http://www.w3.org/2000/svg" xmlns:xlink="http://www.w3.org/1999/xlink">
<g id="graph0" class="graph" transform="scale(1 1) rotate(0) translate(4 760)">
<title>sub_00401f20</title>
<polygon fill="#ffffff" stroke="transparent" points="-4,4 -4,-760 380.7133,-760 380.7133,4 -4,4"/>
<!-- 00401f20 -->
<g id="node1" class="node">
<title>00401f20</title>
<ellipse fill="none" stroke="#000000" cx="328.6627" cy="-738" rx="48.1013" ry="18"/>
<text text-anchor="middle" x="328.6627" y="-733.8" font-family="Times,serif" font-size="14.00" fill="#000000">00401f20</text>
</g>
<!-- 00401f32 -->
<g id="node2" class="node">
<title>00401f32</title>
<ellipse fill="none" stroke="#000000" cx="290.6627" cy="-666" rx="48.1013" ry="18"/>
<text text-anchor="middle" x="290.6627" y="-661.8" font-family="Times,serif" font-size="14.00" fill="#000000">00401f32</text>
</g>
<!-- 00401f20&#45;&gt;00401f32 -->
<g id="edge1" class="edge">
<title>00401f20-&gt;00401f32</title>
<path fill="none" stroke="#000000" d="M319.2694,-720.2022C314.9304,-711.981 309.6844,-702.041 304.8758,-692.9301"/>
<polygon fill="#000000" stroke="#000000" points="307.8426,-691.0527 300.0796,-683.8425 301.6519,-694.3201 307.8426,-691.0527"/>
</g>
<!-- 00401f2d -->
<g id="node3" class="node">
<title>00401f2d</title>
<ellipse fill="none" stroke="#000000" cx="271.6627" cy="-90" rx="48.1013" ry="18"/>
<text text-anchor="middle" x="271.6627" y="-85.8" font-family="Times,serif" font-size="14.00" fill="#000000">00401f2d</text>
</g>
<!-- 00401f20&#45;&gt;00401f2d -->
<g id="edge18" class="edge">
<title>00401f20-&gt;00401f2d</title>
<path fill="none" stroke="#000000" d="M336.5363,-720.2135C347.6668,-693.4059 366.6627,-640.799 366.6627,-594 366.6627,-594 366.6627,-594 366.6627,-234 366.6627,-184.9962 327.8565,-139.8098 299.8484,-113.5787"/>
<polygon fill="#000000" stroke="#000000" points="302.0302,-110.832 292.2763,-106.6954 297.3217,-116.0118 302.0302,-110.832"/>
</g>
<!-- 00401f32&#45;&gt;00401f2d -->
<g id="edge2" class="edge">
<title>00401f32-&gt;00401f2d</title>
<path fill="none" stroke="#000000" d="M298.5363,-648.2135C309.6668,-621.4059 328.6627,-568.799 328.6627,-522 328.6627,-522 328.6627,-522 328.6627,-234 328.6627,-190.5182 305.9161,-144.5075 289.1617,-116.515"/>
<polygon fill="#000000" stroke="#000000" points="291.9795,-114.4163 283.7509,-107.7423 286.0215,-118.091 291.9795,-114.4163"/>
</g>
<!-- 00401f49 -->
<g id="node5" class="node">
<title>00401f49</title>
<ellipse fill="none" stroke="#000000" cx="252.6627" cy="-594" rx="48.1013" ry="18"/>
<text text-anchor="middle" x="252.6627" y="-589.8" font-family="Times,serif" font-size="14.00" fill="#000000">00401f49</text>
</g>
<!-- 00401f32&#45;&gt;00401f49 -->
<g id="edge4" class="edge">
<title>00401f32-&gt;00401f49</title>
<path fill="none" stroke="#000000" d="M281.2694,-648.2022C276.9304,-639.981 271.6844,-630.041 266.8758,-620.9301"/>
<polygon fill="#000000" stroke="#000000" points="269.8426,-619.0527 262.0796,-611.8425 263.6519,-622.3201 269.8426,-619.0527"/>
</g>
<!-- 00401f2f -->
<g id="node4" class="node">
<title>00401f2f</title>
<ellipse fill="none" stroke="#000000" cx="119.6627" cy="-18" rx="46.374" ry="18"/>
<text text-anchor="middle" x="119.6627" y="-13.8" font-family="Times,serif" font-size="14.00" fill="#000000">00401f2f</text>
</g>
<!-- 00401f2d&#45;&gt;00401f2f -->
<g id="edge3" class="edge">
<title>00401f2d-&gt;00401f2f</title>
<path fill="none" stroke="#000000" d="M241.6324,-75.7751C217.7452,-64.4601 184.1531,-48.5481 158.2688,-36.2871"/>
<polygon fill="#000000" stroke="#000000" points="159.6491,-33.0682 149.1134,-31.9503 156.6525,-39.3943 159.6491,-33.0682"/>
</g>
<!-- 00401f49&#45;&gt;00401f2d -->
<g id="edge5" class="edge">
<title>00401f49-&gt;00401f2d</title>
<path fill="none" stroke="#000000" d="M260.5363,-576.2135C271.6668,-549.4059 290.6627,-496.799 290.6627,-450 290.6627,-450 290.6627,-450 290.6627,-234 290.6627,-193.5282 283.1947,-147.2037 277.6227,-118.2725"/>
<polygon fill="#000000" stroke="#000000" points="280.9804,-117.2111 275.5995,-108.0844 274.1144,-118.5746 280.9804,-117.2111"/>
</g>
<!-- 00401f51 -->
<g id="node6" class="node">
<title>00401f51</title>
<ellipse fill="none" stroke="#000000" cx="214.6627" cy="-522" rx="48.1013" ry="18"/>
<text text-anchor="middle" x="214.6627" y="-517.8" font-family="Times,serif" font-size="14.00" fill="#000000">00401f51</text>
</g>
<!-- 00401f49&#45;&gt;00401f51 -->
<g id="edge6" class="edge">
<title>00401f49-&gt;00401f51</title>
<path fill="none" stroke="#000000" d="M243.2694,-576.2022C238.9304,-567.981 233.6844,-558.041 228.8758,-548.9301"/>
<polygon fill="#000000" stroke="#000000" points="231.8426,-547.0527 224.0796,-539.8425 225.6519,-550.3201 231.8426,-547.0527"/>
</g>
<!-- 00401f51&#45;&gt;00401f2d -->
<g id="edge7" class="edge">
<title>00401f51-&gt;00401f2d</title>
<path fill="none" stroke="#000000" d="M222.5363,-504.2135C233.6668,-477.4059 252.6627,-424.799 252.6627,-378 252.6627,-378 252.6627,-378 252.6627,-234 252.6627,-193.5282 260.1307,-147.2037 265.7027,-118.2725"/>
<polygon fill="#000000" stroke="#000000" points="269.211,-118.5746 267.7259,-108.0844 262.345,-117.2111 269.211,-118.5746"/>
</g>
<!-- 00401f67 -->
<g id="node7" class="node">
<title>00401f67</title>
<ellipse fill="none" stroke="#000000" cx="167.6627" cy="-450" rx="48.1013" ry="18"/>
<text text-anchor="middle" x="167.6627" y="-445.8" font-family="Times,serif" font-size="14.00" fill="#000000">00401f67</text>
</g>
<!-- 00401f51&#45;&gt;00401f67 -->
<g id="edge8" class="edge">
<title>00401f51-&gt;00401f67</title>
<path fill="none" stroke="#000000" d="M203.0447,-504.2022C197.5239,-495.7448 190.8157,-485.4685 184.7309,-476.147"/>
<polygon fill="#000000" stroke="#000000" points="187.5441,-474.0536 179.147,-467.593 181.6825,-477.88 187.5441,-474.0536"/>
</g>
<!-- 00401f75 -->
<g id="node8" class="node">
<title>00401f75</title>
<ellipse fill="none" stroke="#000000" cx="157.6627" cy="-378" rx="48.1013" ry="18"/>
<text text-anchor="middle" x="157.6627" y="-373.8" font-family="Times,serif" font-size="14.00" fill="#000000">00401f75</text>
</g>
<!-- 00401f67&#45;&gt;00401f75 -->
<g id="edge9" class="edge">
<title>00401f67-&gt;00401f75</title>
<path fill="none" stroke="#000000" d="M165.1393,-431.8314C164.0698,-424.131 162.798,-414.9743 161.6095,-406.4166"/>
<polygon fill="#000000" stroke="#000000" points="165.0626,-405.8367 160.2201,-396.4133 158.1291,-406.7997 165.0626,-405.8367"/>
</g>
<!-- 00401f83 -->
<g id="node9" class="node">
<title>00401f83</title>
<ellipse fill="none" stroke="#000000" cx="81.6627" cy="-234" rx="48.1013" ry="18"/>
<text text-anchor="middle" x="81.6627" y="-229.8" font-family="Times,serif" font-size="14.00" fill="#000000">00401f83</text>
</g>
<!-- 00401f75&#45;&gt;00401f83 -->
<g id="edge10" class="edge">
<title>00401f75-&gt;00401f83</title>
<path fill="none" stroke="#000000" d="M151.319,-359.8824C144.5219,-341.3206 132.9064,-311.8801 119.6627,-288 114.3253,-278.3759 107.6472,-268.3761 101.3845,-259.6358"/>
<polygon fill="#000000" stroke="#000000" points="104.0623,-257.3689 95.3253,-251.3759 98.4181,-261.5093 104.0623,-257.3689"/>
</g>
<!-- 00401f7c -->
<g id="node12" class="node">
<title>00401f7c</title>
<ellipse fill="none" stroke="#000000" cx="62.6627" cy="-306" rx="47.5177" ry="18"/>
<text text-anchor="middle" x="62.6627" y="-301.8" font-family="Times,serif" font-size="14.00" fill="#000000">00401f7c</text>
</g>
<!-- 00401f75&#45;&gt;00401f7c -->
<g id="edge15" class="edge">
<title>00401f75-&gt;00401f7c</title>
<path fill="none" stroke="#000000" d="M136.1057,-361.6621C123.1091,-351.812 106.3747,-339.1291 92.1631,-328.3582"/>
<polygon fill="#000000" stroke="#000000" points="94.2182,-325.5241 84.1344,-322.2733 89.99,-331.1029 94.2182,-325.5241"/>
</g>
<!-- 00401f72 -->
<g id="node10" class="node">
<title>00401f72</title>
<ellipse fill="none" stroke="#000000" cx="176.6627" cy="-162" rx="48.1013" ry="18"/>
<text text-anchor="middle" x="176.6627" y="-157.8" font-family="Times,serif" font-size="14.00" fill="#000000">00401f72</text>
</g>
<!-- 00401f83&#45;&gt;00401f72 -->
<g id="edge11" class="edge">
<title>00401f83-&gt;00401f72</title>
<path fill="none" stroke="#000000" d="M103.2197,-217.6621C116.2163,-207.812 132.9507,-195.1291 147.1623,-184.3582"/>
<polygon fill="#000000" stroke="#000000" points="149.3354,-187.1029 155.191,-178.2733 145.1072,-181.5241 149.3354,-187.1029"/>
</g>
<!-- 00401f8a -->
<g id="node11" class="node">
<title>00401f8a</title>
<ellipse fill="none" stroke="#000000" cx="62.6627" cy="-162" rx="47.5177" ry="18"/>
<text text-anchor="middle" x="62.6627" y="-157.8" font-family="Times,serif" font-size="14.00" fill="#000000">00401f8a</text>
</g>
<!-- 00401f83&#45;&gt;00401f8a -->
<g id="edge13" class="edge">
<title>00401f83-&gt;00401f8a</title>
<path fill="none" stroke="#000000" d="M76.8682,-215.8314C74.7822,-207.9266 72.2913,-198.4872 69.9821,-189.7365"/>
<polygon fill="#000000" stroke="#000000" points="73.3256,-188.6894 67.3899,-179.9134 66.5573,-190.4755 73.3256,-188.6894"/>
</g>
<!-- 00401f72&#45;&gt;00401f75 -->
<g id="edge12" class="edge">
<title>00401f72-&gt;00401f75</title>
<path fill="none" stroke="#000000" d="M175.0666,-180.1451C171.7549,-217.7945 164.1156,-304.6409 160.1512,-349.7103"/>
<polygon fill="#000000" stroke="#000000" points="156.6397,-349.6872 159.25,-359.9555 163.6128,-350.3007 156.6397,-349.6872"/>
</g>
<!-- 00401f8a&#45;&gt;00401f2d -->
<g id="edge14" class="edge">
<title>00401f8a-&gt;00401f2d</title>
<path fill="none" stroke="#000000" d="M98.1167,-149.7862C133.3965,-137.6324 187.6808,-118.9316 226.131,-105.6856"/>
<polygon fill="#000000" stroke="#000000" points="227.7201,-108.8401 236.0348,-102.2737 225.4401,-102.2218 227.7201,-108.8401"/>
</g>
<!-- 00401f7c&#45;&gt;00401f2f -->
<g id="edge16" class="edge">
<title>00401f7c-&gt;00401f2f</title>
<path fill="none" stroke="#000000" d="M48.104,-288.3765C25.2726,-258.4866 -14.3803,-196.0271 5.6627,-144 22.3607,-100.656 61.6449,-62.9642 89.4143,-40.369"/>
<polygon fill="#000000" stroke="#000000" points="91.6166,-43.0895 97.2685,-34.1281 87.2618,-37.609 91.6166,-43.0895"/>
</g>
<!-- 00401f7c&#45;&gt;00401f83 -->
<g id="edge17" class="edge">
<title>00401f7c-&gt;00401f83</title>
<path fill="none" stroke="#000000" d="M67.4572,-287.8314C69.5432,-279.9266 72.0341,-270.4872 74.3433,-261.7365"/>
<polygon fill="#000000" stroke="#000000" points="77.7681,-262.4755 76.9356,-251.9134 70.9998,-260.6894 77.7681,-262.4755"/>
</g>
</g>
</svg>